<svg xmlns="http://www.w3.org/2000/svg" viewBox="0 0 1744 1744" fill="none" shape-rendering="auto"><metadata xmlns:rdf="http://www.w3.org/1999/02/22-rdf-syntax-ns#" xmlns:xsi="http://www.w3.org/2001/XMLSchema-instance" xmlns:dc="http://purl.org/dc/elements/1.1/" xmlns:dcterms="http://purl.org/dc/terms/"><rdf:RDF><rdf:Description><dc:title>Notionists</dc:title><dc:creator>Zoish</dc:creator><dc:source xsi:type="dcterms:URI">https://heyzoish.gumroad.com/l/notionists</dc:source><dcterms:license xsi:type="dcterms:URI">https://creativecommons.org/publicdomain/zero/1.0/</dcterms:license><dc:rights>Remix of „Notionists” (https://heyzoish.gumroad.com/l/notionists) by „Zoish”, licensed under „CC0 1.0” (https://creativecommons.org/publicdomain/zero/1.0/)</dc:rights></rdf:Description></rdf:RDF></metadata><mask id="viewboxMask"><rect width="1744" height="1744" rx="0" ry="0" x="0" y="0" fill="#fff" /></mask><g mask="url(#viewboxMask)"><rect fill="#ffdfbf" width="1744" height="1744" x="0" y="0" /><g transform="translate(531 487)"><path d="M554 727.7c-99.2 297-363.8 388.6-503.7 19.8-19.3-50.7 31-69.5 66.2-91.9 24.1-15.3 36.8-28.5 35.3-42.2-7-64.4-36.9-243.8-36.9-243.8l-3-5.8s.7-1.6-2.2 1.2c-3 3-9.9 34.2-37 34.2-24.5 0-49.2-10.9-61-86.3C7.2 285.6 9.6 214 40 201c12.5-5.3 24-7.2 35.2-.8 11.3 6.4-13-22 112-126C268.4 6.4 396.7-3.5 448.5 8 500.3 19.5 552 44.8 574.9 98.5c27.8 65-25.9 114.3-14 262.5-2.2 53.6.8 171.2-146.6 210.6-28 7.5-19.3 48.4 22.7 58.4 67 21 117 72.3 117 97.9" fill="#fff"/><path fill-rule="evenodd" clip-rule="evenodd" d="m554 266.2.1-1.4c4.1-36.4 8.2-71.7 27.1-103.4 6.5 4.4 5.7 10 3.7 15.2-19.9 51.2-18 104.4-16.2 157.6l.4 14c2.1 66.4-14.5 126.8-58.7 177.5-15.4 17.6-35.8 29.8-56.5 40.3-21.4 11-25.9 20.1-19.2 43.6l.8 2.6c1.4 3.9 2.8 7.9-1 11.8-4.5 4.6-9.5 3.3-14.8 1.8l-.6-.1a406.4 406.4 0 0 1-137-68.3c-6-4.4-10.8-10.3-15.5-16.1l-.3-.4c-2.5-3-3-7.8.5-10.4 3.3-2.5 5.8-.5 8.7 1.8l1 .9a145.5 145.5 0 0 0 76.3 31.7c13.4 1.4 26.6.9 40 .4 7.4-.3 14.8-.6 22.3-.5 10.2 0 18.7-4.7 26.7-9.2l2.8-1.6c27.8-15.5 54.3-32.8 72.2-60.7 16.1-25 25.9-52.2 31.6-80.9 7.2-36.1 6.6-72.7 6-109.8-.3-12-.5-24.2-.5-36.4ZM50.6 190.8c21.9-1.7 34 11.2 44.3 26.3a140.4 140.4 0 0 1 22.4 61.5c.5 3.7 1 7.6-1.2 11.3-4.5.6-4.9-3-5-5.6-.5-20.7-9.7-38.7-18.9-56.1-6.6-12.5-16.2-24.6-31.4-27.6-17.2-3.5-33 12-40.8 32.2-14.5 37.6-12 74.6 1.4 111 5.8 15.9 13.1 32.1 27.8 43.2 14.8 11.3 32.7 9.3 43.6-5.7l2-2.5c2-2.6 4-5.1 5-8 2.1-5.8 5.4-11.2 11.3-10.4 6.8 1 8 8.3 8.7 14a3661 3661 0 0 0 22 156.7l5.9 38.8c2.6 17.1 5.6 41.7 3.6 52.1a28 28 0 0 0-.3 2.2c-.4 2.8-.6 5-4.2 5.5-4.9.8-7-2-7.7-6.4-2.3-17-3-23.6-4-49.6-.9-25.2-5.6-50-10.4-74.9l-5-27c-5.2-30.8-10.3-62-10.8-97l-2 3c-7.6 11.3-13.7 20.5-24.5 24a40.5 40.5 0 0 1-46.1-12.5 127.8 127.8 0 0 1-28.8-55.8c-8.4-34-9.9-67.1.9-100.6 5.2-16.1 23.7-44.7 42.2-42Zm34.6 127.5c4.4 3.2 8.4 6 12-5.4-1.1-42.2-14.7-69.2-35.8-70.3 11.2 14.6 22 28.8 23 48.5a32.3 32.3 0 0 1-10.7-8.8c-2-2.2-4-4.4-6.5-6l-3-2.4c-4.8-3.6-9.7-7.4-17.8-4.5 3.8 5.8 9 10 14.3 14 6 4.7 12 9.3 15.6 16.5-10.6 7.7-15.2 17.7-9.7 29.9 4.8 10.5 11.9 19.2 25.9 19.8-.6-6.3-4.7-10.9-8.8-15.4-5-5.4-9.7-10.6-7.5-18.6 3.2-1.5 6.2.7 9 2.7Z" fill="#000"/></g><g transform="translate(178 1057)"><path d="m1351 688-1369-3.3s11.4-97 44.3-189.1c41.2-115.2 107.2-232 125-246.1 20.8-16.8-11.6-18.2 3.4-41.2 33.5-51.1 147-97.5 179.8-114.1 58.7-29.8 164.8-47.8 164.8-47.8l27.2 53.5s63.5 21.9 138.6 24.4c40.5 1.3 134.4-29.5 134.4-29.5L788.3 37s169.5 34.8 253.3 85.6c48.3 29.3 108.5 75 110 101.2 2.2 39.8 1.7 36.7 24 51.9 53.5 36.2 98.8 122 121.2 191.2C1314.4 521.1 1351 688 1351 688Z" fill="#fff"/><path d="m924.7 688-94.5-.3L843 482.6l-43.4-379.4s-110.1 29-147 27c-31.4-1.5-123.7-22-123.7-22s51 280 55.9 374.4C587.3 533.9 576 688 576 688l-209.4-1.2L276 489s51-133.4 101.5-206.7c9-13.1-22.8-16-64.1-14-42.2 2-164.2-13.8-162.4-44.5 3-51.3 150.5-113 183.4-129.6C393 64.4 499.2 46.4 499.2 46.4l27.3 53.5S590 121.8 665 124.3c40.5 1.3 134.4-29.5 134.4-29.5L788.3 37s169.6 34.8 253.4 85.6c48.3 29.3 122 66.1 111.2 120.3-2.3 12-207 47-187.2 89.8 24.6 53 88.8 118.6 79 135-16 27-40.8 67.7-69.5 103.3-20.2 25-50.5 117-50.5 117Z" fill="#000"/><path fill-rule="evenodd" clip-rule="evenodd" d="M301.5 563.4c20.5 40.6 41 81.3 56 124.6 6.6 0 12 0 17.7-1l-4.3-11a672.5 672.5 0 0 0-19.6-47.8 5876 5876 0 0 0-34.2-70.7c-9.4-19.2-18.8-38.3-28-57.5-3.8-8-6-16.9-1.3-25.8 6.7-12.8 12.6-26 18.4-39.2l5.2-11.8c11-24.4 24.5-47.6 38-70.9 10.6-18.1 21.2-36.3 30.6-55 8-16.3 5.6-24.5-12-30a48.4 48.4 0 0 0-10.5-2.3c-8.6-.7-17.2-1.2-25.9-1.7-26.4-1.5-52.9-3-78.6-10.8-8-2.4-16.3-3.7-24.6-5-8-1.3-16-2.6-23.8-4.9l-4.6-1.3c-14.8-4.2-30-8.6-41.4-20.3l1.7-2.4c1-1.3 1.8-2.5 2.8-3.5 25.5-28.7 59-47 92.3-65.1l20-11a963.1 963.1 0 0 1 62.6-31.4c7.9-3.7 15.8-7.4 23.7-11.3A394 394 0 0 1 423 71.5c10.6-3.1 21.4-5.6 32.2-8 7.8-1.9 15.6-3.7 23.3-5.7 20.1-5.3 23.8-4 29 15.7l9.1 34.2a2051 2051 0 0 1 26.8 106.6c8.7 40.7 14.4 82 17.2 123.5a1480 1480 0 0 0 6.8 70.7c3.7 32.2 7.3 64.3 8 96.7.5 20.8-.1 41.6-.8 62.4l-.8 29c-.3 13.5-1.8 26.9-3.3 40.2-2 17-4 34-3.3 51.2 6.7 0 12.2 0 17.8-1.2l.6-16.2c.2-10.2.5-20 1.6-29.6 5.7-51 4.8-102 3.7-153-.7-33.6-3.6-67-8.4-100.2a605.8 605.8 0 0 1-4.6-52.8c-1.3-23-2.6-46.1-7.3-69a1627 1627 0 0 1-6.7-34.2 906 906 0 0 0-13-61.8c-.2-1-.6-2-1-3-1.2-3-2.5-6 .6-8.9 4-3.8 9.1-2.7 14-1.4A373 373 0 0 0 690 167.3c31.6-2.4 62.8-5.8 91.8-19.5 8.7-4 15.5-1.5 17.4 9 1 5.6 1.7 11.2 2.4 16.9 1 7.9 2.1 15.8 3.8 23.4 7.8 34.8 10 70 12 105.2 1 16.1 2 32.2 3.5 48.3 1.1 12 2 24.2 2.8 36.3 1 14.6 2 29.1 3.6 43.7 6.3 60.7 4.7 121.5 2.7 182.3l-.7 20c-.7 18.4-1.4 36.7-1.4 55 5.8 0 10.4 0 15.4-1l.8-5.3c1-6.5 2-12.5 2-18.4l.3-44.7c.1-28 .3-56.2 1.6-84.2 1.7-37 .6-74-3.2-111-2.7-26.2-4.5-52.4-6.3-78.7-1.7-24.1-3.4-48.3-5.7-72.4-4.5-46-10.5-92-20.5-137.3a2499.2 2499.2 0 0 1-13.8-68.7c-.5-2.4-.4-5-.4-7.4v-4c-.3-6.4 2.7-8.5 9.1-7.2a642.2 642.2 0 0 1 79.2 18.8c21 6.9 41.7 15 62.3 23 7.3 3 14.7 5.8 22 8.6a446.7 446.7 0 0 1 141 84.8c13 11.7 24.1 25.1 31.8 40.6 4.5 9.3-.3 19.2-9.6 21l-9.2 1.9c-22.7 4.4-45.4 9-67.6 15.7a251.6 251.6 0 0 0-92.9 50.8c-7.6 6.6-8.7 14.7-4.5 23.2 4 8 8.4 16 13.2 23.6 5.8 9.2 11.7 18.4 17.7 27.5a705.7 705.7 0 0 1 42 70c3.2 6.5 4 13-.3 18-9.4 10.8-16.8 22.9-24.3 35a360.3 360.3 0 0 1-16.9 25.7 486 486 0 0 0-53.6 90.3c-3.6 7.9-6.6 16-9.7 24.2-4.8 13-9.7 25.8-16.5 37.7 7.5 0 14 0 20.6-1 10.7-33 23.5-64.2 41.5-93 23-37.1 47.5-73.3 72.3-109.3 6.3-9 9.7-18.8 3.8-31a589 589 0 0 0-27-48.5l-.4-.7c-13.9-23-28.7-45.6-43.7-68-4.7-7.2-2.2-12 3-16.8a158.1 158.1 0 0 1 41.7-26.7 355.4 355.4 0 0 1 102.9-29.7c12.8-1.7 22.3.7 32 7.6 34.6 24.3 64.6 51 82.6 90.3l8.7 18.7c12.8 27.6 25.6 55.2 35.5 84a1107 1107 0 0 1 41 147.4c5.8 25.6 11.6 51.2 18.2 76.7 4.9 0 8.6 0 12-1-5.3-21.6-9-43.3-12.8-65-4.7-27-9.4-54-17-80.4l-1.4-5.3c-6.6-23.2-13.2-46.4-21.1-69a882 882 0 0 0-52-121.3c-18.2-34.7-45.8-61.4-77.7-84.9-1.4-1-3.2-1.9-5-2.8-6-3.1-12.7-6.5-9.7-16.8 5.2-17.6 1.8-33.7-13.7-46.3a86.8 86.8 0 0 1-9.6-9.7l-3-3.3c-41.4-45.3-95.8-72.5-151.8-97-36.4-15.9-74.5-28.1-112.6-40-23.7-7.3-48-13.2-73-15-12.7-1-18 4.8-16.5 16.8.4 3 .8 6 1 9 .8 6.7 1.5 13.5 3.1 20 2.8 11.2-3.2 17.2-12 21.2-22 9.8-45.4 17.3-69.4 18.8-52.8 3.3-105.4.7-156-16.9-8.5-3-13.3-7.4-16.9-14.7-2.5-5-4.7-10.2-6.8-15.3a224 224 0 0 0-11-23c-5.4-9.6-11.8-11.8-21.6-8.6-6.4 2-12.8 3.7-19.3 5C434.6 50.4 399.3 59 366.5 75c-46 22.4-91.7 45.1-136 70.3-30.3 17.2-60 34.8-82.7 61.3-6.2 7.3-7.5 14.5-2.5 22.2 4.2 6.5 3.9 11.5-2 17a139.2 139.2 0 0 0-22.8 30c-1.8 2.8-3.5 5.7-5.4 8.5-21 32-39.7 65.2-56 99.5A873.4 873.4 0 0 0 26.7 463l-1 2.8c-7.9 22-15.7 43.9-21.3 66.5a925 925 0 0 1-5.6 21.5 563.4 563.4 0 0 0-8.8 35.3c-6.6 32.9-12.2 66-17 98.9 6.7 0 12.1 0 18-1l8-46c2-12.3 4-24.5 6.2-36.6 11-63 32.6-123 57-182a838.3 838.3 0 0 1 91-160.9c4-5.6 9-7.2 15.7-7.8 16.4-1.5 31.6 2.9 46.8 7.2 7.8 2.3 15.6 4.5 23.5 6l15.7 2.8c27 5 54 10 81.8 11.4 2.9.2 5.8.2 8.7.2 8.1 0 16.5 0 25.3 3l-8.4 13.6-23.8 38.6a729.7 729.7 0 0 0-50 95.6 948.5 948.5 0 0 1-18.2 39.1c-3.8 7.6-4.9 14.6-1.7 22l1.3 3c6 14 11.9 27.8 18.6 41.4l13 25.8Zm476.8-452c4.8-2.6 10.3-5.4 11.2 3.7 1.8 10.6-5.4 14.2-11.5 17.3l-1.8 1c-17.5 9.2-37 14-56.8 16.2a437 437 0 0 1-145.1-5.8c-9.6-2.2-18.8-5.6-27.4-10-5.6-2.7-8.1-6.8-6.8-12.5 1.5-6 5.5-5 9.5-4l2.4.6 19.4 3.8c16.5 3.3 33.1 6.6 49.9 9a293 293 0 0 0 103.8-2.9l1-.1c18-3.8 35.8-7.5 52.2-16.2Z" fill="#000"/><path d="M200 688c3-35 7-69.8 11.4-104.7 3.6-29.7 4-60 17.4-88 1-2.4 2.3-4.6 3.8-6.7 2.3-3.1 5-6.8 9.7-5.2 5.3 1.7 3.6 6.4 2.7 9.9-8 32.1-13.3 64.8-17.7 97.5-4.1 31.5-6.2 63.3-9.4 96-5.8 1.2-11.2 1.2-18 1.2ZM1150.9 688c-9.8-36.3-12.8-73.7-23.3-109.7-6.2-21-9.8-42.8-17.9-63.4-1.6-4.2-.5-9 4-11.2 4.4-2.3 7.4 1.3 9.9 4.3a55.4 55.4 0 0 1 9.9 22.1c11.5 43.4 20.8 87.4 27.6 131.7 1.2 8 1.2 16 1.9 25.2-3.5 1-7.3 1-12.1 1Z" fill="#000"/></g><g transform="translate(266 207)"><path d="M487.3 374c4 2.2 10 3.6 6.7 9-3 4.7-10.5.3-13.3-1.6-5.6-3.6-15.6-8.6-30.5-17.5-4.5-2.7-16.8 5 27.1 27.1 4.1 2.1 19.1 18.1-11.7 7-31-11-39-15.9-41.3-12.7-5.8 8.2 2.2 13.4 28.8 34 4 3 8.5 5.6 12.7 8.4 3.4 2.3 6.5 5.4 3.6 9.4-3.1 4.5-6.8 1.1-10-.8-33-19.3-43-23.2-49.2-24.2-4.4-.6-45.5-7.4 30.4 37 5.6 3.2 14.6 5 10.8 16.1-16.8-2.7-30.8-11.5-45.1-19.3-9.3-5-17.8-11.5-26.7-17.2-3.3-2.1 6 3.6 1.2 8.3-3.5 3.5 6.4 13.6 15.6 19.3 11.5 7 23.7 13.2 35.6 19.8 3.8 2 8.7 4.3 6.7 9.3-2.4 6-7.3 2.4-10.8.6-14-7.2-27.9-14.4-41.3-22.3-7.7-4.5-1.6 34.9 37.3 41.2a5.8 5.8 0 0 1 4.6 6.8c-.9 4.3-4.7 4.5-8.2 3.5-5.7-1.6-11.5-2.9-16.6-6.3-8.6-5.8-14.3-2.3-18 6.5-4.4 10.8-2.7 21.7-.7 32.6 1 5.4 2.8 10.7-.9 15.6-3.9 1-5-1.8-5.7-4-10.3-33.1-32.2-58-55.8-82-17.4-18-18.4-40.8-18.4-64.3 0-22.3 8.3-42.5 13.4-63.4 6.8-27.9 15.5-55 16.3-84.4a76.4 76.4 0 0 1 22.6-51.5c33.7-34.4 70.1-65.8 115.3-83.8 33-13.2 67.5-22.3 103.7-23.8 44-1.9 86.4 4.4 126.2 22.4 25.4 11.5 48.7 27.1 65 51 10.6 15.4 28.4 21 43.6 29.7C851.8 233 889 261.3 915 302c17.3 27.2 21.4 56.2 6.8 85.6-11.6 23.2-34.2 27.1-57.4 28.4-50.3 3-96.6-10-139-36.6-14.9-9.2-29.3-3.2-44.1-2.6-34.4 1.3-69.2 7.3-103.1.4-93.3-19.2-100.8-9-91-3.3Z" fill="#000"/></g><g transform="translate(791 871)"><path d="M141.7 79c-3.2 7-5.7 14.2-6.1 22-.2 4.6.8 9.8 6 11.6 5.4 1.9 9.1-1 12.8-5.6 6-7.5 7.4-16.2 7.5-25.1 0-5 1.3-11.8-6.1-13.7-7.6-2-10.7 3.1-14 10.7Z" fill="#fff"/><path fill-rule="evenodd" clip-rule="evenodd" d="M140.4 59.5c-14.9 15-17.2 33.4-14.1 54.3 5.4 10.8 14 11.2 23.4 9.9 21.3-2.9 39.6-34.7 26-58.5-9.4-16.3-22-19-35.3-5.7Zm-4.8 41.4c.4-7.7 2.9-15 6.1-22 3.4-7.6 6.5-12.7 14-10.7 6.7 1.7 6.4 7.3 6.3 12v1.7a39.1 39.1 0 0 1-7.6 25.1c-3.7 4.6-7.4 7.5-12.8 5.6-5.2-1.8-6.2-7-6-11.7Z" fill="#000"/></g><g transform="translate(653 805)"></g><g transform="translate(901 668)"><path d="M98.7 204.4c-29.8 25.1-65.6 24.4-87-.9-5-6-7.7-13-10.7-20-1.2-2.7-1.5-6.1 2.2-7.7 3.2-1.3 5.8 0 7.4 3 2.3 4 4.5 8.2 6.7 12.3 17 32.6 61.6 20 75.6.5 4-5.6 3-11.2-.4-16.7-8.4-13.8-17.7-27-24.8-41.5-7.9-15.9-15.4-32.4-11.5-51.2 1-4.9 1.8-9.9 6.6-12.4 3.5 2.1 3 5 2.8 7.3-3.2 31.8 13.6 56.2 30.8 79.9 14.5 19.9 15.8 28.6 2.3 47.4Z" fill="#000"/></g><g transform="translate(610 680)"><path d="M407.4 122.5c13 .3 25.4 1.1 37.6 2.5 3 .4 5 3.3 5 6.7 0 3.3-1.7 5.6-4.7 7-11.2 4.8-22 8.2-33.7.2-6.5-4.5-9-8.7-4.2-16.4ZM251.2 124c6.4 2.8 5.6 6.6 3 10.6-5.9 8.6-27.3 12.5-36 6.6-5-3.4-8-8-5.6-14 2.5-6.2 7.7-5.6 12.8-3.6 8.3 3.3 16.5 1.7 25.8.4ZM419.6 111c-4.2-9.5-9.9-15.2-19.8-15.7-6-.3-7-5.1-8.9-9.8 2-1.5 3.5-3.7 5.3-3.8 21.1-1.7 42.4-1.8 63.5-.1 6 .4 9.3 8 3.2 10.4-10 4-12.5 13.2-18.5 19.8-8.2 9-15.2 9.1-24.8-.8ZM229.6 81.1c12.2.7 23.1 1 34 2 3.6.3 8 1.8 8 6.7 0 5.6-4.6 5.2-8.3 5.1-6.3 0-9.7 2.7-12.5 8.6-3.4 7.4-6.9 15.3-18 14.8-10.5-.6-15.1-7.2-18.2-15.2-2-5.7-4.9-8.4-10.9-8.2-3.4.1-7.1-.2-7.5-4.9-.4-5 3-6 7-7.2a67.7 67.7 0 0 1 26.4-1.7Z" fill="#000"/></g><g transform="translate(610 680)"></g><g transform="translate(774 657)"><path d="M81.4 35C60 29.6 52 33.2 40 52.6c-2.4 4-3.4 11.4-10.6 7-5.6-3.4-5.3-8.8-2.6-14.6a51.4 51.4 0 0 1 38-30.7 33.1 33.1 0 0 1 37.5 26.4c.9 5.3.1 10-4.8 13.6-11.2-1.3-8-14.2-16-19.1ZM246.2 32.8c14-6.2 27-12.4 41.2-1.9 5.1 3.7 9 8.8 11.3 14.7 2 5 2.3 10.7-2.7 13.8-5.7 3.5-8.1-2.1-11-5.6-10.4-12.8-18.4-13.7-32.4-4.6-4 2.6-6.8 8-13.5 7-5.7-9.6-.1-16.3 7-23.4Z" fill="#000"/></g><g transform="translate(0 559)"><path d="m14 1186.3 235.4 16.5s68.6-71.2 47.4-271.7c-3-29 27.8-209 29.3-222.7 4-36 21.3-104.9 40.1-131.2 85.3-119.3 74-138.5 79.3-166.4 5.7-29.4 15.4-80.4 21.3-100 2.7-9 22.5-72.8 4.8-75.8-84.4-14.2-65.4 148.2-97.5 133.2-49-23-59-87.3-59-87.3s-64.7-175.3-99-177.3c-14-.9 2.1 88.8 2.1 88.8s-72.3-95.6-89-95.7c-16.7 0 8 71.1 8 71.1s-34.8-30.2-48.7-20.8c-18.4 12.5 67 155.3 53.2 155.3-10.5 0-28.8-35.7-41.5-42.3-21.5-11.2-29.2-13.5-31.3 6.5-2.1 21.2 42.5 88.2 63 125.7 10.6 19.4 73.2 132 86.6 162.7 16.8 38.8-24.5 99.8-41.6 129.3-17 29.6-86.2 202.4-108.8 233.3-22.7 30.9-45.8 81.3-55.9 135.6-11.1 60.1 1.8 133.2 1.8 133.2Z" fill="#fff"/><path fill-rule="evenodd" clip-rule="evenodd" d="M339.5 676.2c-1.3 7.3-2.7 14.6-4.3 21.8l4.8-28.2a6441 6441 0 0 0-12.6 71c-1.7 10-3.2 20.1-4.7 30.2-5.7 40-9 80.4-12.3 120.7a72 72 0 0 1-3 13.7c-1.8 6.3-3.5 12.6-2.7 18.6 1.4 10.8 1.8 21.6 2.2 32.5.6 15.8 1.2 31.7 5 47.3a70 70 0 0 1 1.2 21.5c-2.6 41.7-9 82.4-24.5 121.6-8.2 20.8-18 40-34.2 56.2l-11.7-.6c3.8-10.5 9.6-19.8 15.5-29 4-6.5 8-12.9 11.4-19.7 9.3-19 15.8-39.1 19.2-60l.1-.8c3.3-19.3 6.7-38.7 7-58.5.2-12.4-.3-24.4-8-36a3134 3134 0 0 0-9.8 27.5c-21.8 61.5-43.4 122.5-89.7 172.5a60 60 0 0 1-17-1c33-33.7 55.6-73.2 71.3-115.8l5.6-14.8c13.2-35.3 26.5-70.8 33.2-108.3 1.7-9.7 4-19.2 6.3-28.8 3.3-14 6.6-28 8.2-42.3l3.8-32.4c6.6-58 13.2-116 24.1-173.5a422.7 422.7 0 0 1 45.9-127.2c9.4-17 20-33.1 30.7-49.3 7.8-11.8 15.5-23.5 22.7-35.5l5-7.4c5.4-7.6 10.8-15.2 10.4-25.5-1.6-41.2 9-80.4 19.4-119.6l4.8-17.8c4.1-16 8-32.2 7.7-49-.1-10.2-5.5-14-13.7-9.2a114.9 114.9 0 0 0-45.8 57.3 209.2 209.2 0 0 0-12.5 61c-1.3 15.7-12.8 21.7-27.4 16.3-17.6-6.4-27.6-20.8-37.5-35l-.8-1c-9.3-13.4-14.5-28.6-19.7-43.8-2-6-4-12-6.4-17.8-17-43.3-35.4-86-56.6-127.5l-1.5-2.8c-7-14-14.6-28.8-31.8-36.2l2 18c4.6 42.6 9 84.4 22.8 124.8l-6.5 2.7c-24.8-57.6-53.8-112.2-101.5-155a26 26 0 0 0-2.6 18.5c3.7 23 13.8 43.4 23.9 63.8 3.6 7.2 7.2 14.5 10.5 21.8 4.5 10 9.8 19.8 15 29.5 3.5 6.4 6.9 12.7 10.1 19l.3.6c2.4 4.8 5 10.1.7 15.3-4.3-.7-5.6-3.3-6.8-5.7l-.3-.5a467 467 0 0 0-35-59.4c-11.7-17.5-23.4-35.1-39.8-49l-1.9-1.6c-4.4-4-9-8-14.4-3.7-6.3 5-4.8 13.3-1.6 20 4.6 9.6 9.4 19 14.1 28.5 6.2 12.5 12.5 25 18.4 37.7l7 15c10 21.4 20 42.8 29.5 64.4 1.9 4.4 3.2 9-3.7 13.3-11.6-9-20.8-20.5-30-32-12.6-15.7-25.3-31.4-44-41-6.6 8.1-8.6 15.5-2.3 26 9.6 16 18.6 32.5 27.6 48.8 6 11 12 22 18.2 33 5.6 9.8 10.5 20 15.3 30.3 6.6 13.9 13.1 27.8 21.6 40.6A683 683 0 0 1 216.9 536c13.8 31.2 9 61-2.7 90a915.5 915.5 0 0 1-50.6 100.5 597.7 597.7 0 0 0-35 79.5l-4.3 11.4-1.6 4.1c-9.7 25-19.4 50.1-27.2 75.8l-5.7 18.4c-6.9 21.8-13.7 43.6-17.9 66a426 426 0 0 0-5.8 100.3l.6 13.1c1.6 34.1 3.1 68 21.5 98.3l-34.6-2c-41.8-86.5-20.3-170.4 11.8-253.8a104 104 0 0 0-24.8 43.8c-7 21.9-13.3 43.9-17.8 66.4a342 342 0 0 0-2 137c.4 1 .9 2.2.8 3.8-4 .6-8 .4-11.8-.7l-.6-1.3c-3.1-7.4-6-14-6.6-21.4-2.2-25.4-3.5-51-2-76.3 2.4-38.4 13.7-75 25.2-111.5.8-2.2 1.4-4.5 2-6.8 1.4-5.5 2.8-11 5.8-16 12.7-21.3 25-42.8 37.3-64.4 7.6-13.3 15.2-26.6 23-39.8 13.7-23.7 24-49.1 34.2-74.6a703 703 0 0 1 27.3-62c6.4-12.4 12.3-25.1 18.1-37.8a656.8 656.8 0 0 1 24.7-49.9c14.1-24.8 18.5-49.6 10.6-76.5-7-23.7-19.5-44.7-32-65.7-4.1-7-8.3-14-12.3-21.1-4.5-8-9.3-16-14-23.8-8-13.1-16-26.2-22.6-40.1-10.4-22-22.2-43.2-34-64.4l-18.3-33-.7-1.5C68.5 288 62 276 64.4 261.7c3-18 13.5-22.4 29.4-13.7 6.6 3.6 12.3 8.5 18 13.4 4.3 3.7 8.5 7.3 13.2 10.5-4.1-4.9-6-10.7-8-16.4a71.9 71.9 0 0 0-4-10.5c-12-23.7-23.3-48-33.7-72.5a26.6 26.6 0 0 1 6.5-30.7c7.6-6.7 17.3-5 25.7 1.3 2.3 1.7 5 2.9 7.8 4l3.6 1.7a56.7 56.7 0 0 1-6.6-36.5l.2-1.9c.6-6.8 1.1-13.6 8.4-16.6 8-3.2 15.6-1.8 22.5 4.2 16.2 13.8 29 30.3 42 46.9l1.6 2c3 3.6 5.5 7.5 8 11.4 4.6 6.7 9.1 13.4 15.2 19.3-5.5-19.5-7.2-39-8.9-58.6l-.1-1.7-.4-3.3c-.7-5.8-1.4-11.2 5-14.8 7-4 13.3-.6 19 3.4 16.5 11.5 26.7 28 35.6 45.5a940 940 0 0 1 36.2 82.4c3 7.7 6.3 15.4 9.6 23a488.4 488.4 0 0 1 19.6 51.4 108 108 0 0 0 37.9 55c9.5 7.3 17.6 4.2 19.4-6.6l1.5-9.1c3.9-23.5 7.7-46.7 19.7-68.7 10-18.2 21.1-33.3 38.4-43.9 15.4-9.3 31-5.5 34.6 8.3a56 56 0 0 1 2 20.2c-2.5 22-8.5 43-14.5 64.2-3.1 11-6.3 22.1-9 33.3l-3.3 12.9a110.6 110.6 0 0 0-5.9 42c1.5 11.8.8 23.9-2 35.5-5.3 20.5-16.7 37.7-28 55-6.8 10.2-13.7 20.6-19.2 31.6-7.3 14.8-16.2 29-25 43.1-3.9 6.3-7.8 12.5-11.5 18.8-15.1 25.1-20.2 52.4-25.4 79.7ZM47.3 1056c0 .9-.1 1.7-.3 2.4-4 30.7 1.2 58.5 7 86.4-4-20.7-3.8-41.5-3.6-62.4 0-10.8.1-21.6-.3-32.4-2.6 1.5-2.7 3.8-2.8 6Z" fill="#000"/><path d="M273.6 406.4c1.5 24.2 6 46.1 19 66.5 6.3-5.2 5.6-9.6 4.2-13.5-13.4-37.4-9.8-76.3-10.2-114.9 0-2 0-4.2.2-6.4.2-4 0-7.9-5.5-8.1-5.4-.2-6.3 4.2-6.5 7.8-1 14.4-2.2 29-1.4 43.3.4 8 .5 16.1.2 25.3ZM246 540.3c-4.7-3-9-4.8-11.7.1-2 3.4 1.3 5.8 3.5 8.5a92 92 0 0 0 26.7 24.6c8.1 4.7 16 4.5 24.3 1.2 3-1.2 4.7-3.5 4.5-6.9-.4-4-3.4-4.3-6.5-4.4-17.3-.6-29.4-10.2-40.9-23.1ZM228 397c-5.5-2.2-10.3-3.5-14.8.3 5.8 10.8 28.6 23.9 39.5 22.5-2.5-13.5-15.4-15.6-24.6-22.8Z" fill="#000"/><path d="M1721.2 1194h-235s-39.6-69.5-42-145.1c-.9-24.9 11.2-81.4 6.6-222-3.2-99.7-19.3-218.5-32.2-248.4-9.8-22.6-44-67-79.1-87.4-43.4-25.3-59-78.3-58.2-99.2.8-21 10.3-47.6 26.3-47.6 15.9 0 19.7 29.3 26 58.9 23.5 109.3 84.3 42.8 76.4-15-4.6-32.6-24-66.3-45.4-70.9-22.2-4.8-40.7-2.6-45.7-10.5-5-8 1.5-31.8 18.7-37 17.1-5.3 37.2-16.3 67.7 7.6 30.5 23.8 28.1 25.8 29 6.6 1.7-33-40.7-105.3-48.3-128.2-7.7-22.9-.4-32 11-38.2 11.5-6.2 40.3 35.3 49.2 49.9 17.4 28.8 32.3 119.9 45.2 114.2 12.9-5.8 7.1-68 3.7-99.5-3.7-33.7-12.2-76.2 4.5-75.2s31.4 60.8 42.8 90.8c17 44.7 1 152.4 17.7 150.5 16.7-2 24.3-66.4 23.9-76.9-.5-10.5-1.1-55.9 12-61.8 22.1-9.8 32 53.4 33 73.5.8 21.3-10.1 62.8-18.2 83.3s-37.5 126.6-52.6 156.4c-19.2 37.8-1.2 75.3 14 105.8 15.3 30.5 93.1 259.2 113.9 291.3 20.7 32.2 40.8 83.9 47.7 138.7 7.5 60.7-12.6 135.5-12.6 135.5Z" fill="#fff"/><path fill-rule="evenodd" clip-rule="evenodd" d="M1411 584a257 257 0 0 1 19.1 77.4l13 135.4c.4 10.2.5 20.5.6 30.7.1 19.7.3 39.3 2.8 58.6 2.8 21.7 1.7 43 .5 64.2l-.7 15.6c-.4 9.7-3 19-5.5 28.3a111 111 0 0 0-5.5 33c1.3 36.9 5 73.3 17 108.8 7 21 15.6 40.8 30.9 58h11.7c-3.2-10.5-8.4-20-13.6-29.5-3.7-6.8-7.4-13.5-10.4-20.7a217 217 0 0 1-15.8-62.3c-2.9-28.7-5.6-57.4-.8-86.4.8-4.5 2.2-8.6 3.4-12.4 1-2.7 1.8-5.2 2.3-7.6l1.8 7.1c18.4 73.4 37 148 87.6 211a59 59 0 0 0 16.8 0c-18.3-23.4-36-46.6-46.7-73.5a606 606 0 0 1-28.1-84c-2.4-10-5-20-7.6-29.8-4.5-17-9-34-12.1-51.4a1042 1042 0 0 1-15.7-166.7c-.3-15-.5-30.2-2.7-45.2-5.2-37-10-73.9-14.8-110.8l-1.8-13c-3.4-26-10.9-51-28.3-70.6-23.1-26-47-51.5-73-74.6a137.7 137.7 0 0 1-42.6-69.2c-4.6-16.7 1.3-31 8-45.4 1.4-3.2 4-6 7.9-5.4 4 .6 8 2.8 8.1 7 .3 7.3 2.3 14.3 4.3 21.2 1.5 5.4 3 10.7 3.8 16.2 2.8 21.2 12 39.8 24.5 56.5 11 14.5 42 15.5 50.4 2.5 12.8-20 21.3-40.7 19.5-65.6-2.7-35.3-33.5-92-83.8-86.7l-.6.1c-3.5.4-7.7.8-9.7-3.1-2.3-4.4 0-9.4 2.6-11.8 1.9-1.7 3.5-3.5 5.2-5.4 3.4-3.7 6.8-7.4 11.6-9.7 18.6-8.8 44.7-2.5 62.7 15.4a121.1 121.1 0 0 1 33.4 60.3c.9 4 2.1 10.1 9 8 6.4-1.9 5.5-8.3 4.5-13.1-1-5.2-2.4-10.3-3.7-15.4-1.2-4.3-2.4-8.6-3.3-13l-6.7-32.3-7.3-35c-3.8-17.4-11-33.5-18.4-49.6-3.7-8.2-7.4-16.4-10.7-24.8-1.4-3.7-3.2-7.3-5-11-4.3-9-8.8-18-8.2-28.5.5-11 4.2-12.9 13.2-7.2a68.9 68.9 0 0 1 23.3 26.7c16.4 30.1 31.6 61.3 40.4 94.3 1.8 7 4.4 13.7 7 20.5 6.1 16.1 12.3 32.4 8.6 50.7-.9 4.6-.8 11.3 6.5 11.7 7.3.4 8-5.4 8.6-10.6l.1-1c1.5-11.7 2-23.3 2.6-35 .6-13.8 1.3-27.6 3.4-41.3 1.8-11.7 1.3-23.7-.6-35.7-1.5-9.3-2.2-18.8-3-28.2-1-13-1.9-26-5-38.9-1.8-7.8-1.4-16 1-23.7a243 243 0 0 1 29.4 60.1c10.3 30.3 13 62.3 14.7 94.3 1.3 23.8 3.7 47.5 6 71.3l1 11.3c.6 5.7 1.2 12 7.4 15 4.7-.5 6.7-3.7 8.4-7.2 18.6-38.8 32.3-78.7 29.2-122.6a33.2 33.2 0 0 1 8-23.3c4 2.3 5.1 5.7 6 8.9.8 3.7 1.7 7.3 2.7 11 3.4 13.6 6.8 27.3 9.2 41 1.5 9 1.3 18-.5 26.8a1343.8 1343.8 0 0 1-64.7 203.6c-6.7 17-9 34.2-11.3 51.7l-.4 2.7a59.6 59.6 0 0 0 4.5 30l12.6 31.5c13.4 33.9 26.8 67.7 43.2 100.3 12.3 24.6 20.6 51 28.8 77l4.6 15 1.4 4c8.1 25.5 16.3 51.3 22.7 77.5l4.4 17.7c5.6 22.5 11.2 45 14 68 4.2 32.9 3.8 66 0 99.2l-1.4 13.8c-3.5 34.1-7 68-27.2 97.4h34.6l6-13a205 205 0 0 0 14.7-37.3c11-43.8 11-87.2 1.6-131-2.4-11-5.6-21.8-8.9-32.5a280.3 280.3 0 0 1-11.6-48.6c18.1 25.6 24.7 55 31.3 84.2l1.5 6.6c8.5 37.5 9.3 75.8 8 114-.5 17-4.6 33.3-8.8 50l-1.7 6.7c3.9.8 8 .9 11.8 0l.7-1.4c3.5-7.1 6.7-13.5 7.8-20.8 3.8-25.3 6.5-50.7 6.5-76.1 0-38.4-9.2-75.7-18.6-112.8l-1.5-6.9c-1-5.5-2.2-11-4.8-16.2-11.3-21.8-22.2-43.8-33-65.7l-21-42c-12.3-24.5-21-50.5-29.8-76.6a703.1 703.1 0 0 0-23.6-63.4c-9-20-17-40.4-25.2-60.9l-11.9-29.3c-1.3-3.3-2.7-6.5-4.2-9.8-6.1-14.2-12.3-28.4-12.4-44.5-.2-27.5 9.8-52.2 19.7-76.8 3.9-9.6 7.8-19.1 11-28.8 2.7-8 5.7-16 8.7-23.9a376.2 376.2 0 0 0 14.1-42c1.7-6.5 3.7-13 5.7-19.4 2.6-8.5 5.2-17 7-25.8 1.3-6 2.8-12 4.3-17.9 5.6-22.3 11.1-44.5 3.9-68.3-2-6.4-3-13-4.2-19.7-1.5-8.9-3-17.7-6.4-26-4.2-10-10-20.9-22.1-20-11.8 1-15 12.7-17.2 22.7-1.2 5.3-1.7 10.6-2.3 16l-.8 8-1.8 16.7c-2.1 21.2-4.2 42.7-15.2 63.3l-1.6-11.3c-1.2-7.6-2.3-14.7-2.4-21.8a389 389 0 0 0-9.9-93.7c-8.3-32.4-22-62.1-38.2-91-4.2-7.3-11.6-8.1-19.2-6.4-7.8 1.8-8.9 8-9.1 14.9-.7 23 .5 46 6.3 68.5 6.7 26 4.7 52-.1 79.5-4-4.6-4.6-9.6-5-14.3-.4-3-.7-5.9-1.8-8.6-5.5-12.9-10.6-26-15.6-39l-11.2-28c-8.4-20.6-20.2-39.2-36.2-54.6-7.7-7.4-17.6-12.4-28-7.2-11 5.6-14.7 16.5-12.6 28.4a114 114 0 0 0 8 28.1l7.4 15.9c7.5 15.8 15 31.7 21.4 48a215.3 215.3 0 0 1 13.4 52c-3.8 1-5.5-.3-6.9-2-15.4-18.3-34.6-26-59-27-19.6-.8-44.7 19.3-50.5 36.6-4.1 12.4 7.3 28 20.2 27.9h1.2c11.9-.1 23.6-.2 34.4 6.8 26.5 17.2 35.3 43.3 37 72.9 1 17.6-1.8 34-17.9 44.9-7.5 5-17 8.1-23 .3a107.2 107.2 0 0 1-24.2-57c-2.4-13.2-4.9-26.4-11.6-38.4-4-7.1-9.2-10.7-17.2-11.1a29.4 29.4 0 0 0-30 24c-8.4 44.2 2.5 82.5 35 114.1 25 24.4 49.9 48.8 74.6 73.5 9.7 9.7 16.2 21.3 21.6 34.2Zm277.8 547 .6-3c5-30.2 6-58.5 6.1-88 8 37.6 1 72.7-9.4 107.5l.4-3a689.8 689.8 0 0 1 2.3-13.4Z" fill="#000"/></g></g></svg>